<svg width="160" height="80" viewBox="0 0 160 80" fill="none" xmlns="http://www.w3.org/2000/svg">
<g filter="url(#filter0_i_890748_102)">
<rect width="160" height="80" rx="8" fill="#4D5AE5"/>
</g>
<path d="M19.5078 19.625V31H17.1719V19.625H19.5078ZM22.3431 19.625H26.5853C27.4551 19.625 28.2025 19.7552 28.8275 20.0156C29.4577 20.276 29.9421 20.6615 30.2806 21.1719C30.6192 21.6823 30.7884 22.3099 30.7884 23.0547C30.7884 23.6641 30.6843 24.1875 30.4759 24.625C30.2728 25.0573 29.9837 25.4193 29.6087 25.7109C29.239 25.9974 28.8041 26.2266 28.3041 26.3984L27.5619 26.7891H23.8744L23.8587 24.9609H26.6009C27.0124 24.9609 27.3535 24.888 27.6244 24.7422C27.8952 24.5964 28.0983 24.3932 28.2337 24.1328C28.3744 23.8724 28.4447 23.5703 28.4447 23.2266C28.4447 22.862 28.377 22.5469 28.2416 22.2812C28.1061 22.0156 27.9004 21.8125 27.6244 21.6719C27.3483 21.5312 27.002 21.4609 26.5853 21.4609H24.6869V31H22.3431V19.625ZM28.7025 31L26.1087 25.9297L28.5853 25.9141L31.2103 30.8906V31H28.7025ZM35.7253 19.625V31H33.3894V19.625H35.7253ZM44.4825 28.0234C44.4825 27.8203 44.4513 27.638 44.3888 27.4766C44.3315 27.3099 44.2221 27.1589 44.0606 27.0234C43.8992 26.8828 43.6726 26.7448 43.3809 26.6094C43.0893 26.474 42.7117 26.3333 42.2481 26.1875C41.7325 26.0208 41.2429 25.8333 40.7794 25.625C40.321 25.4167 39.9148 25.1745 39.5606 24.8984C39.2117 24.6172 38.9356 24.2917 38.7325 23.9219C38.5346 23.5521 38.4356 23.1224 38.4356 22.6328C38.4356 22.1589 38.5398 21.7292 38.7481 21.3438C38.9565 20.9531 39.2481 20.6198 39.6231 20.3438C39.9981 20.0625 40.4408 19.8464 40.9513 19.6953C41.4669 19.5443 42.032 19.4688 42.6466 19.4688C43.4851 19.4688 44.2169 19.6198 44.8419 19.9219C45.4669 20.224 45.9513 20.638 46.295 21.1641C46.644 21.6901 46.8184 22.2917 46.8184 22.9688H44.4903C44.4903 22.6354 44.42 22.3438 44.2794 22.0938C44.144 21.8385 43.9356 21.638 43.6544 21.4922C43.3783 21.3464 43.0294 21.2734 42.6075 21.2734C42.2013 21.2734 41.8627 21.3359 41.5919 21.4609C41.321 21.5807 41.1179 21.7448 40.9825 21.9531C40.8471 22.1562 40.7794 22.3854 40.7794 22.6406C40.7794 22.8333 40.8263 23.0078 40.92 23.1641C41.019 23.3203 41.1648 23.4661 41.3575 23.6016C41.5502 23.737 41.7872 23.8646 42.0684 23.9844C42.3497 24.1042 42.6752 24.2214 43.045 24.3359C43.6648 24.5234 44.2091 24.7344 44.6778 24.9688C45.1518 25.2031 45.5476 25.4661 45.8653 25.7578C46.183 26.0495 46.4226 26.3802 46.5841 26.75C46.7455 27.1198 46.8263 27.5391 46.8263 28.0078C46.8263 28.5026 46.7299 28.9453 46.5372 29.3359C46.3445 29.7266 46.0658 30.0573 45.7013 30.3281C45.3367 30.599 44.9018 30.8047 44.3966 30.9453C43.8914 31.0859 43.3263 31.1562 42.7013 31.1562C42.1388 31.1562 41.5841 31.0833 41.0372 30.9375C40.4903 30.7865 39.9929 30.5599 39.545 30.2578C39.1023 29.9557 38.7481 29.5703 38.4825 29.1016C38.2169 28.6328 38.0841 28.0781 38.0841 27.4375H40.4356C40.4356 27.7917 40.4903 28.0911 40.5997 28.3359C40.7091 28.5807 40.8627 28.7786 41.0606 28.9297C41.2638 29.0807 41.5033 29.1901 41.7794 29.2578C42.0606 29.3255 42.3679 29.3594 42.7013 29.3594C43.1075 29.3594 43.4408 29.3021 43.7013 29.1875C43.9669 29.0729 44.1622 28.9141 44.2872 28.7109C44.4174 28.5078 44.4825 28.2786 44.4825 28.0234Z" fill="white"/>
<path d="M17.1914 61L18.5 53.8906H19.3008L17.9922 61H17.1914ZM19.0957 61L20.4043 53.8906H21.2051L19.8965 61H19.0957ZM21.8691 56.6787H16.791V55.9219H21.8691V56.6787ZM21.5029 58.998H16.4199V58.2412H21.5029V58.998ZM27.7697 58.4658V59.4033H22.6428L22.6037 58.6953L25.6701 53.8906H26.6125L25.592 55.6387L23.8293 58.4658H27.7697ZM26.8811 53.8906V61H25.7043V53.8906H26.8811ZM31.1068 61H29.5883L29.598 60.0283H31.1068C31.5463 60.0283 31.9141 59.9323 32.2104 59.7402C32.5098 59.5482 32.7344 59.2731 32.8842 58.915C33.0372 58.557 33.1137 58.1305 33.1137 57.6357V57.25C33.1137 56.8659 33.0697 56.5257 32.9818 56.2295C32.8972 55.9333 32.7702 55.6842 32.601 55.4824C32.435 55.2806 32.2299 55.1276 31.9857 55.0234C31.7449 54.9193 31.4665 54.8672 31.1508 54.8672H29.559V53.8906H31.1508C31.6228 53.8906 32.0541 53.9704 32.4447 54.1299C32.8354 54.2861 33.1723 54.5124 33.4555 54.8086C33.7419 55.1048 33.9617 55.4596 34.1146 55.873C34.2676 56.2865 34.3441 56.7487 34.3441 57.2598V57.6357C34.3441 58.1468 34.2676 58.609 34.1146 59.0225C33.9617 59.4359 33.7419 59.7907 33.4555 60.0869C33.169 60.3799 32.8272 60.6061 32.4301 60.7656C32.0362 60.9219 31.5951 61 31.1068 61ZM30.267 53.8906V61H29.0414V53.8906H30.267ZM36.9244 57.6943L35.9869 57.4648L36.3727 53.8906H40.2057V54.8867H37.3492L37.1539 56.6299C37.2646 56.5648 37.4176 56.5013 37.6129 56.4395C37.8082 56.3743 38.0312 56.3418 38.2818 56.3418C38.6171 56.3418 38.9166 56.3971 39.1803 56.5078C39.4472 56.6152 39.6734 56.7731 39.859 56.9814C40.0445 57.1865 40.1861 57.4372 40.2838 57.7334C40.3814 58.0264 40.4303 58.3568 40.4303 58.7246C40.4303 59.0534 40.3814 59.361 40.2838 59.6475C40.1894 59.9339 40.0462 60.1862 39.8541 60.4043C39.662 60.6224 39.4195 60.7933 39.1266 60.917C38.8368 61.0374 38.4934 61.0977 38.0963 61.0977C37.8001 61.0977 37.5152 61.0553 37.2418 60.9707C36.9716 60.8828 36.7291 60.7542 36.5143 60.585C36.2994 60.4124 36.1269 60.2008 35.9967 59.9502C35.8665 59.6963 35.7916 59.4049 35.7721 59.0762H36.9244C36.9537 59.3073 37.0172 59.5042 37.1148 59.667C37.2158 59.8265 37.3492 59.9486 37.5152 60.0332C37.6812 60.1178 37.8733 60.1602 38.0914 60.1602C38.29 60.1602 38.4609 60.126 38.6041 60.0576C38.7473 59.986 38.8661 59.8851 38.9605 59.7549C39.0582 59.6214 39.1298 59.4652 39.1754 59.2861C39.2242 59.1071 39.2486 58.9085 39.2486 58.6904C39.2486 58.4821 39.221 58.2917 39.1656 58.1191C39.1135 57.9466 39.0338 57.7969 38.9264 57.6699C38.8222 57.543 38.6904 57.4453 38.5309 57.377C38.3714 57.3053 38.1874 57.2695 37.9791 57.2695C37.6992 57.2695 37.4843 57.3102 37.3346 57.3916C37.1881 57.473 37.0514 57.5739 36.9244 57.6943ZM44.6268 54.8379L42.5027 61H41.2186L43.8943 53.8906H44.7146L44.6268 54.8379ZM46.4041 61L44.2752 54.8379L44.1824 53.8906H45.0076L47.6932 61H46.4041ZM46.3016 58.3633V59.335H42.4344V58.3633H46.3016ZM53.4424 60.0283V61H49.668V60.0283H53.4424ZM50.0146 53.8906V61H48.7891V53.8906H50.0146ZM52.9492 56.8594V57.8164H49.668V56.8594H52.9492ZM53.418 53.8906V54.8672H49.668V53.8906H53.418ZM55.7932 57.6943L54.8557 57.4648L55.2414 53.8906H59.0744V54.8867H56.218L56.0227 56.6299C56.1333 56.5648 56.2863 56.5013 56.4816 56.4395C56.677 56.3743 56.8999 56.3418 57.1506 56.3418C57.4859 56.3418 57.7854 56.3971 58.049 56.5078C58.3159 56.6152 58.5422 56.7731 58.7277 56.9814C58.9133 57.1865 59.0549 57.4372 59.1525 57.7334C59.2502 58.0264 59.299 58.3568 59.299 58.7246C59.299 59.0534 59.2502 59.361 59.1525 59.6475C59.0581 59.9339 58.9149 60.1862 58.7229 60.4043C58.5308 60.6224 58.2883 60.7933 57.9953 60.917C57.7056 61.0374 57.3622 61.0977 56.965 61.0977C56.6688 61.0977 56.384 61.0553 56.1105 60.9707C55.8404 60.8828 55.5979 60.7542 55.383 60.585C55.1682 60.4124 54.9956 60.2008 54.8654 59.9502C54.7352 59.6963 54.6604 59.4049 54.6408 59.0762H55.7932C55.8225 59.3073 55.8859 59.5042 55.9836 59.667C56.0845 59.8265 56.218 59.9486 56.384 60.0332C56.55 60.1178 56.7421 60.1602 56.9602 60.1602C57.1587 60.1602 57.3296 60.126 57.4729 60.0576C57.6161 59.986 57.7349 59.8851 57.8293 59.7549C57.927 59.6214 57.9986 59.4652 58.0441 59.2861C58.093 59.1071 58.1174 58.9085 58.1174 58.6904C58.1174 58.4821 58.0897 58.2917 58.0344 58.1191C57.9823 57.9466 57.9025 57.7969 57.7951 57.6699C57.6909 57.543 57.5591 57.4453 57.3996 57.377C57.2401 57.3053 57.0562 57.2695 56.8479 57.2695C56.5679 57.2695 56.3531 57.3102 56.2033 57.3916C56.0568 57.473 55.9201 57.5739 55.7932 57.6943Z" fill="white"/>
<defs>
<filter id="filter0_i_890748_102" x="0" y="0" width="160" height="80" filterUnits="userSpaceOnUse" color-interpolation-filters="sRGB">
<feFlood flood-opacity="0" result="BackgroundImageFix"/>
<feBlend mode="normal" in="SourceGraphic" in2="BackgroundImageFix" result="shape"/>
<feColorMatrix in="SourceAlpha" type="matrix" values="0 0 0 0 0 0 0 0 0 0 0 0 0 0 0 0 0 0 127 0" result="hardAlpha"/>
<feOffset/>
<feGaussianBlur stdDeviation="6"/>
<feComposite in2="hardAlpha" operator="arithmetic" k2="-1" k3="1"/>
<feColorMatrix type="matrix" values="0 0 0 0 0 0 0 0 0 0 0 0 0 0 0 0 0 0 0.05 0"/>
<feBlend mode="normal" in2="shape" result="effect1_innerShadow_890748_102"/>
</filter>
</defs>
</svg>
